<svg width="40" height="40" viewBox="0 0 40 40" fill="none" xmlns="http://www.w3.org/2000/svg">
<path d="M28 0H12C5.37258 0 0 5.37258 0 12V28C0 34.6274 5.37258 40 12 40H28C34.6274 40 40 34.6274 40 28V12C40 5.37258 34.6274 0 28 0Z" fill="white"/>
<path d="M12.6857 35.875C11.3744 35.875 10.2656 35.4161 9.3594 34.4982C8.4531 33.5803 8 32.4657 8 31.1544C8 29.8431 8.4557 28.7344 9.3672 27.8281C10.2786 26.9219 11.3854 26.4687 12.6875 26.4687C12.9792 26.4687 13.2813 26.4948 13.5937 26.5469C13.9063 26.599 14.1667 26.6667 14.375 26.75L15.5937 25.125C15.0937 24.5208 14.724 23.8229 14.4844 23.0313C14.2448 22.2396 14.1771 21.4792 14.2813 20.75L12.4687 19.9375C12.0729 20.4792 11.5494 20.9219 10.8981 21.2656C10.2468 21.6094 9.5203 21.7813 8.7187 21.7813C7.408 21.7813 6.2938 21.3244 5.3763 20.4108C4.4588 19.4972 4 18.3879 4 17.0827C4 15.7776 4.4589 14.6667 5.3768 13.75C6.2947 12.8333 7.4093 12.375 8.7206 12.375C10.0319 12.375 11.1406 12.8338 12.0469 13.7513C12.9531 14.6688 13.4063 15.783 13.4063 17.0937C13.4063 17.1198 13.4063 17.1458 13.4063 17.1719C13.4063 17.1979 13.4063 17.224 13.4063 17.25L15.1563 18.0937C15.5729 17.4063 16.125 16.8073 16.8125 16.2969C17.5 15.7865 18.2396 15.4479 19.0313 15.2813V13.2187C18.2187 12.9687 17.4635 12.4479 16.7656 11.6563C16.0677 10.8646 15.7187 9.8854 15.7187 8.7187C15.7187 7.40799 16.1777 6.29384 17.0956 5.3763C18.0135 4.45877 19.1281 4 20.4393 4C21.7506 4 22.8646 4.45877 23.7813 5.3763C24.6979 6.29384 25.1563 7.40799 25.1563 8.7187C25.1563 9.8854 24.8073 10.8646 24.1094 11.6563C23.4115 12.4479 22.6563 12.9687 21.8437 13.2187V15.2813C22.6354 15.4687 23.375 15.8177 24.0625 16.3281C24.75 16.8385 25.3021 17.4375 25.7187 18.125L27.4687 17.25C27.4687 17.224 27.4687 17.1979 27.4687 17.1719C27.4687 17.1458 27.4687 17.1198 27.4687 17.0937C27.4687 15.783 27.9256 14.6688 28.8392 13.7513C29.7528 12.8338 30.8621 12.375 32.1673 12.375C33.4724 12.375 34.5833 12.8339 35.5 13.7518C36.4167 14.6697 36.875 15.7843 36.875 17.0956C36.875 18.4069 36.4162 19.5156 35.4987 20.4219C34.5812 21.3281 33.467 21.7813 32.1563 21.7813C31.3562 21.7813 30.625 21.6042 29.9625 21.25C29.3 20.8958 28.7708 20.4479 28.375 19.9063L26.5625 20.75C26.625 21.5208 26.5573 22.2813 26.3594 23.0313C26.1615 23.7813 25.8021 24.4792 25.2813 25.125L26.5313 26.7813C26.7396 26.6771 26.9948 26.599 27.2969 26.5469C27.599 26.4948 27.8958 26.4687 28.1875 26.4687C29.4896 26.4687 30.5964 26.9219 31.5078 27.8281C32.4193 28.7344 32.875 29.8431 32.875 31.1544C32.875 32.4657 32.4219 33.5803 31.5156 34.4982C30.6094 35.4161 29.5006 35.875 28.1893 35.875C26.8781 35.875 25.7635 35.4162 24.8456 34.4987C23.9277 33.5812 23.4687 32.467 23.4687 31.1563C23.4687 30.6519 23.5469 30.1664 23.7031 29.6998C23.8594 29.2333 24.0521 28.8333 24.2813 28.5L23.0937 26.875C22.2813 27.2917 21.3906 27.5 20.4219 27.5C19.4531 27.5 18.5625 27.2917 17.75 26.875L16.5937 28.5C16.8229 28.8333 17.0156 29.2333 17.1719 29.6998C17.3281 30.1664 17.4063 30.6519 17.4063 31.1563C17.4063 32.467 16.9473 33.5812 16.0294 34.4987C15.1115 35.4162 13.9969 35.875 12.6857 35.875ZM8.7187 18.3437C9.0729 18.3437 9.3698 18.224 9.6094 17.9844C9.849 17.7448 9.9687 17.4479 9.9687 17.0937C9.9687 16.7396 9.849 16.4427 9.6094 16.2031C9.3698 15.9635 9.0729 15.8437 8.7187 15.8437C8.3646 15.8437 8.0677 15.9635 7.8281 16.2031C7.5885 16.4427 7.4687 16.7396 7.4687 17.0937C7.4687 17.4479 7.5885 17.7448 7.8281 17.9844C8.0677 18.224 8.3646 18.3437 8.7187 18.3437ZM12.6875 32.4063C13.0417 32.4063 13.3385 32.2865 13.5781 32.0469C13.8177 31.8073 13.9375 31.5104 13.9375 31.1563C13.9375 30.8021 13.8177 30.5052 13.5781 30.2656C13.3385 30.026 13.0417 29.9063 12.6875 29.9063C12.3333 29.9063 12.0365 30.026 11.7969 30.2656C11.5573 30.5052 11.4375 30.8021 11.4375 31.1563C11.4375 31.5104 11.5573 31.8073 11.7969 32.0469C12.0365 32.2865 12.3333 32.4063 12.6875 32.4063ZM20.4375 9.9687C20.7917 9.9687 21.0885 9.849 21.3281 9.6094C21.5677 9.3698 21.6875 9.0729 21.6875 8.7187C21.6875 8.3646 21.5677 8.0677 21.3281 7.82812C21.0885 7.58854 20.7917 7.46875 20.4375 7.46875C20.0833 7.46875 19.7865 7.58854 19.5469 7.82812C19.3073 8.0677 19.1875 8.3646 19.1875 8.7187C19.1875 9.0729 19.3073 9.3698 19.5469 9.6094C19.7865 9.849 20.0833 9.9687 20.4375 9.9687ZM20.4322 23.5625C21.0607 23.5625 21.5937 23.3455 22.0313 22.9115C22.4687 22.4776 22.6875 21.9463 22.6875 21.3178C22.6875 20.6893 22.4705 20.1563 22.0365 19.7187C21.6026 19.2813 21.0713 19.0625 20.4428 19.0625C19.8143 19.0625 19.2813 19.2795 18.8437 19.7135C18.4063 20.1474 18.1875 20.6787 18.1875 21.3072C18.1875 21.9357 18.4045 22.4687 18.8385 22.9063C19.2724 23.3437 19.8037 23.5625 20.4322 23.5625ZM28.1875 32.4063C28.5417 32.4063 28.8385 32.2865 29.0781 32.0469C29.3177 31.8073 29.4375 31.5104 29.4375 31.1563C29.4375 30.8021 29.3177 30.5052 29.0781 30.2656C28.8385 30.026 28.5417 29.9063 28.1875 29.9063C27.8333 29.9063 27.5365 30.026 27.2969 30.2656C27.0573 30.5052 26.9375 30.8021 26.9375 31.1563C26.9375 31.5104 27.0573 31.8073 27.2969 32.0469C27.5365 32.2865 27.8333 32.4063 28.1875 32.4063ZM32.1563 18.3437C32.5104 18.3437 32.8073 18.224 33.0469 17.9844C33.2865 17.7448 33.4063 17.4479 33.4063 17.0937C33.4063 16.7396 33.2865 16.4427 33.0469 16.2031C32.8073 15.9635 32.5104 15.8437 32.1563 15.8437C31.8021 15.8437 31.5052 15.9635 31.2656 16.2031C31.026 16.4427 30.9063 16.7396 30.9063 17.0937C30.9063 17.4479 31.026 17.7448 31.2656 17.9844C31.5052 18.224 31.8021 18.3437 32.1563 18.3437Z" fill="#0B50DA"/>
</svg>
